<svg width="32" height="32" viewBox="0 0 32 32" fill="none" xmlns="http://www.w3.org/2000/svg">
  <rect width="32" height="32" rx="6" fill="#9966CC"/>
  <path d="M16 8C18.2091 8 20 9.79086 20 12C20 14.2091 18.2091 16 16 16C13.7909 16 12 14.2091 12 12C12 9.79086 13.7909 8 16 8Z" fill="white"/>
  <path d="M24 20C24 22.2091 22.2091 24 20 24H12C9.79086 24 8 22.2091 8 20C8 17.7909 9.79086 16 12 16H20C22.2091 16 24 17.7909 24 20Z" fill="white"/>
  <path d="M12 18C10.8954 18 10 18.8954 10 20C10 21.1046 10.8954 22 12 22C13.1046 22 14 21.1046 14 20C14 18.8954 13.1046 18 12 18Z" fill="#9966CC"/>
  <path d="M20 18C18.8954 18 18 18.8954 18 20C18 21.1046 18.8954 22 20 22C21.1046 22 22 21.1046 22 20C22 18.8954 21.1046 18 20 18Z" fill="#9966CC"/>
</svg> 