<svg xmlns="http://www.w3.org/2000/svg" viewBox="0 0 180 180" width="180" height="180">
  <!-- Background for Apple devices -->
  <rect width="180" height="180" rx="40" fill="#F8FAFC"/>
  
  <!-- Heart shape in center -->
  <path d="M90 42c-14 0-25 11-25 25 0 20 25 42 25 42s25-22 25-42c0-14-11-25-25-25z" 
        fill="none" 
        stroke="#C084FC" 
        stroke-width="8" 
        stroke-linecap="round" 
        stroke-linejoin="round"/>
  
  <!-- Left hand/arm -->
  <path d="M23 135c0-17 11-28 28-28 11 0 20 6 25 14" 
        fill="none" 
        stroke="#C084FC" 
        stroke-width="8" 
        stroke-linecap="round" 
        stroke-linejoin="round"/>
  
  <!-- Left hand fingers -->
  <path d="M34 112c0-8 6-14 14-14s14 6 14 14" 
        fill="none" 
        stroke="#C084FC" 
        stroke-width="8" 
        stroke-linecap="round"/>
  
  <path d="M28 123c0-6 4-11 11-11s11 5 11 11" 
        fill="none" 
        stroke="#C084FC" 
        stroke-width="8" 
        stroke-linecap="round"/>
  
  <!-- Right hand/arm -->
  <path d="M157 135c0-17-11-28-28-28-11 0-20 6-25 14" 
        fill="none" 
        stroke="#C084FC" 
        stroke-width="8" 
        stroke-linecap="round" 
        stroke-linejoin="round"/>
  
  <!-- Right hand fingers -->
  <path d="M146 112c0-8-6-14-14-14s-14 6-14 14" 
        fill="none" 
        stroke="#C084FC" 
        stroke-width="8" 
        stroke-linecap="round"/>
  
  <path d="M152 123c0-6-4-11-11-11s-11 5-11 11" 
        fill="none" 
        stroke="#C084FC" 
        stroke-width="8" 
        stroke-linecap="round"/>
</svg> 