<svg xmlns="http://www.w3.org/2000/svg" viewBox="0 0 32 32" width="32" height="32">
  <!-- Background circle -->
  <circle cx="16" cy="16" r="15" fill="black"/>
  
  <!-- Heart in upper center -->
  <path d="M16 8c-1.5 0-2.8 1.2-2.8 2.8 0 2.1 2.8 4.2 2.8 4.2s2.8-2.1 2.8-4.2c0-1.6-1.3-2.8-2.8-2.8z" 
        fill="none" 
        stroke="#E6E6FA" 
        stroke-width="1.5" 
        stroke-linecap="round" 
        stroke-linejoin="round"/>
  
  <!-- Left hand cupping the heart -->
  <path d="M8 20c-1.5-1.5-1.5-3.5 0-5s3.5-1.5 5 0l3 3" 
        fill="none" 
        stroke="#E6E6FA" 
        stroke-width="1.5" 
        stroke-linecap="round" 
        stroke-linejoin="round"/>
  
  <!-- Right hand cupping the heart -->
  <path d="M24 20c1.5-1.5 1.5-3.5 0-5s-3.5-1.5-5 0l-3 3" 
        fill="none" 
        stroke="#E6E6FA" 
        stroke-width="1.5" 
        stroke-linecap="round" 
        stroke-linejoin="round"/>
  
  <!-- Left hand fingers -->
  <path d="M6 18c0-1 1-2 2-2s2 1 2 2" 
        fill="none" 
        stroke="#E6E6FA" 
        stroke-width="1.5" 
        stroke-linecap="round"/>
  
  <!-- Right hand fingers -->
  <path d="M26 18c0-1-1-2-2-2s-2 1-2 2" 
        fill="none" 
        stroke="#E6E6FA" 
        stroke-width="1.5" 
        stroke-linecap="round"/>
  
  <!-- Additional hand details for more realistic appearance -->
  <path d="M7 16c0-0.5 0.5-1 1-1s1 0.5 1 1" 
        fill="none" 
        stroke="#E6E6FA" 
        stroke-width="1" 
        stroke-linecap="round"/>
  
  <path d="M25 16c0-0.5-0.5-1-1-1s-1 0.5-1 1" 
        fill="none" 
        stroke="#E6E6FA" 
        stroke-width="1" 
        stroke-linecap="round"/>
</svg> 