<svg xmlns="http://www.w3.org/2000/svg" viewBox="0 0 16 16" width="16" height="16">
  <!-- Heart shape -->
  <path d="M8 3c-1.2 0-2.2 1-2.2 2.2 0 1.8 2.2 3.8 2.2 3.8s2.2-2 2.2-3.8c0-1.2-1-2.2-2.2-2.2z" 
        fill="none" 
        stroke="#C084FC" 
        stroke-width="1.2" 
        stroke-linecap="round" 
        stroke-linejoin="round"/>
  
  <!-- Left hand -->
  <path d="M2 12c0-1.5 1-2.5 2.5-2.5 1 0 1.7 0.5 2.2 1.2" 
        fill="none" 
        stroke="#C084FC" 
        stroke-width="1.2" 
        stroke-linecap="round"/>
  
  <!-- Right hand -->
  <path d="M14 12c0-1.5-1-2.5-2.5-2.5-1 0-1.7 0.5-2.2 1.2" 
        fill="none" 
        stroke="#C084FC" 
        stroke-width="1.2" 
        stroke-linecap="round"/>
  
  <!-- Hand details -->
  <path d="M3 10c0-0.7 0.5-1.2 1.2-1.2s1.2 0.5 1.2 1.2" 
        fill="none" 
        stroke="#C084FC" 
        stroke-width="1" 
        stroke-linecap="round"/>
  
  <path d="M13 10c0-0.7-0.5-1.2-1.2-1.2s-1.2 0.5-1.2 1.2" 
        fill="none" 
        stroke="#C084FC" 
        stroke-width="1" 
        stroke-linecap="round"/>
</svg> 