<svg xmlns="http://www.w3.org/2000/svg" viewBox="0 0 32 32" width="32" height="32">
  <!-- Heart shape in center -->
  <path d="M16 7.5c-2.5 0-4.5 2-4.5 4.5 0 3.5 4.5 7.5 4.5 7.5s4.5-4 4.5-7.5c0-2.5-2-4.5-4.5-4.5z" 
        fill="none" 
        stroke="#C084FC" 
        stroke-width="2" 
        stroke-linecap="round" 
        stroke-linejoin="round"/>
  
  <!-- Left hand/arm -->
  <path d="M4 24c0-3 2-5 5-5 2 0 3.5 1 4.5 2.5" 
        fill="none" 
        stroke="#C084FC" 
        stroke-width="2" 
        stroke-linecap="round" 
        stroke-linejoin="round"/>
  
  <!-- Left hand fingers -->
  <path d="M6 20c0-1.5 1-2.5 2.5-2.5s2.5 1 2.5 2.5" 
        fill="none" 
        stroke="#C084FC" 
        stroke-width="2" 
        stroke-linecap="round"/>
  
  <path d="M5 22c0-1 0.8-2 2-2s2 1 2 2" 
        fill="none" 
        stroke="#C084FC" 
        stroke-width="2" 
        stroke-linecap="round"/>
  
  <!-- Right hand/arm -->
  <path d="M28 24c0-3-2-5-5-5-2 0-3.5 1-4.5 2.5" 
        fill="none" 
        stroke="#C084FC" 
        stroke-width="2" 
        stroke-linecap="round" 
        stroke-linejoin="round"/>
  
  <!-- Right hand fingers -->
  <path d="M26 20c0-1.5-1-2.5-2.5-2.5s-2.5 1-2.5 2.5" 
        fill="none" 
        stroke="#C084FC" 
        stroke-width="2" 
        stroke-linecap="round"/>
  
  <path d="M27 22c0-1-0.8-2-2-2s-2 1-2 2" 
        fill="none" 
        stroke="#C084FC" 
        stroke-width="2" 
        stroke-linecap="round"/>
</svg> 